<?xml version="1.0" encoding="UTF-8"?>
<svg width="20px" height="20px" viewBox="0 0 20 20" version="1.1" xmlns="http://www.w3.org/2000/svg" xmlns:xlink="http://www.w3.org/1999/xlink">
  <title>Info</title>
  <desc>Info icon.</desc>
  <defs></defs>
  <g id="mobile-v8" stroke="none" stroke-width="1" fill="none" fill-rule="evenodd">
    <g id="info" transform="translate(-35.000000, -536.000000)">
      <g id="tabbar" transform="translate(0.000000, 524.000000)">
        <g id="icon" transform="translate(33.000000, 10.000000)">
          <rect id="rectangle" x="0" y="0" width="24" height="24"></rect>
          <path id="shape" d="M12,22 C6.4771525,22 2,17.5228475 2,12 C2,6.4771525 6.4771525,2 12,2 C17.5228475,2 22,6.4771525 22,12 C22,17.5228475 17.5228475,22 12,22 Z M12,9 C12.5522847,9 13,8.55228475 13,8 C13,7.44771525 12.5522847,7 12,7 C11.4477153,7 11,7.44771525 11,8 C11,8.55228475 11.4477153,9 12,9 Z M11,10 L11,17 L13,17 L13,10 L11,10 Z" fill="#a1b8c7"></path>
        </g>
      </g>
    </g>
  </g>
</svg>
