<?xml version="1.0" encoding="UTF-8"?>
<svg width="18px" height="20px" viewBox="0 0 18 20" version="1.1" xmlns="http://www.w3.org/2000/svg" xmlns:xlink="http://www.w3.org/1999/xlink">
  <title>Calendar</title>
  <desc>Calendar icon.</desc>
  <defs></defs>
  <g id="mobile-v8" stroke="none" stroke-width="1" fill="none" fill-rule="evenodd">
    <g id="calendar" transform="translate(-112.000000, -536.000000)">
      <g id="tabbar" transform="translate(0.000000, 524.000000)">
        <g id="icon" transform="translate(109.000000, 10.000000)">
          <rect id="rectangle" x="0" y="0" width="24" height="24"></rect>
          <path id="shape" d="M17,13 L12,13 L12,18 L17,18 L17,13 L17,13 Z M16,2 L16,4 L8,4 L8,2 L6,2 L6,4 L5,4 C3.9,4 3,4.9 3,6 L3,20 C3,21.1 3.9,22 5,22 L19,22 C20.1,22 21,21.1 21,20 L21,6 C21,4.9 20.1,4 19,4 L18,4 L18,2 L16,2 L16,2 Z M19,20 L5,20 L5,9 L19,9 L19,20 L19,20 Z" fill="#a1b8c7"></path>
        </g>
      </g>
    </g>
  </g>
</svg>
